<svg width="24" height="24" viewBox="0 0 24 24" fill="none" xmlns="http://www.w3.org/2000/svg">
<mask id="mask0_5_8403" style="mask-type:alpha" maskUnits="userSpaceOnUse" x="0" y="0" width="24" height="24">
<rect width="24" height="24" fill="#D9D9D9"/>
</mask>
<g mask="url(#mask0_5_8403)">
<path d="M18.9445 21.1479L15.9522 18.1709L14.2405 19.8827C14.115 20.0082 13.9522 20.0709 13.7522 20.0709C13.5522 20.0709 13.3894 20.0082 13.2637 19.8827C12.9189 19.5377 12.7465 19.1107 12.7465 18.6019C12.7465 18.0929 12.9189 17.666 13.2637 17.3212L17.4215 13.1634C17.7663 12.8186 18.1932 12.6462 18.7022 12.6462C19.211 12.6462 19.638 12.8186 19.983 13.1634C20.1085 13.2891 20.1712 13.4519 20.1712 13.6519C20.1712 13.8519 20.1085 14.0147 19.983 14.1402L18.2712 15.8519L21.2482 18.8442C21.429 19.0248 21.5195 19.2357 21.5195 19.4769C21.5195 19.7179 21.429 19.9287 21.2482 20.1094L20.2097 21.1479C20.029 21.3287 19.8182 21.4192 19.5772 21.4192C19.336 21.4192 19.1251 21.3287 18.9445 21.1479ZM21.229 5.9594L10.304 16.8942L10.7367 17.3114C11.0815 17.6562 11.254 18.0832 11.254 18.5922C11.254 19.1012 11.0815 19.5281 10.7367 19.8729C10.611 19.9986 10.4482 20.0614 10.2482 20.0614C10.0482 20.0614 9.88546 19.9986 9.75996 19.8729L8.04821 18.1614L5.05596 21.1384C4.87529 21.3191 4.66437 21.4094 4.42321 21.4094C4.18221 21.4094 3.97137 21.3191 3.79071 21.1384L2.75221 20.0999C2.57137 19.9191 2.48096 19.7082 2.48096 19.4672C2.48096 19.2262 2.57137 19.0152 2.75221 18.8344L5.72921 15.8422L4.01746 14.1307C3.89196 14.005 3.82921 13.8422 3.82921 13.6422C3.82921 13.4422 3.89196 13.2793 4.01746 13.1537C4.36246 12.8088 4.78937 12.6364 5.29821 12.6364C5.80721 12.6364 6.23412 12.8088 6.57896 13.1537L7.00596 13.5962L17.685 2.9269C17.849 2.76274 18.0422 2.6339 18.2647 2.5404C18.487 2.44674 18.7188 2.3999 18.96 2.3999H20.5962C20.854 2.3999 21.0691 2.48615 21.2415 2.65865C21.414 2.83099 21.5002 3.04607 21.5002 3.3039V5.3114C21.5002 5.4319 21.4784 5.54665 21.4347 5.65565C21.3912 5.76465 21.3226 5.8659 21.229 5.9594ZM6.75421 9.9519L3.01746 6.21515C2.85346 6.05115 2.72621 5.8579 2.63571 5.6354C2.54537 5.41307 2.50021 5.18132 2.50021 4.94015V3.3039C2.50021 3.04607 2.58646 2.83099 2.75896 2.65865C2.93129 2.48615 3.14637 2.3999 3.40421 2.3999H5.04046C5.28162 2.3999 5.51337 2.44674 5.73571 2.5404C5.95821 2.6339 6.15146 2.76274 6.31546 2.9269L10.058 6.6789C10.2066 6.82757 10.2784 6.99999 10.2732 7.19615C10.268 7.39232 10.1911 7.56473 10.0425 7.7134C9.89379 7.8519 9.71979 7.92365 9.52046 7.92865C9.32112 7.93382 9.14704 7.86207 8.99821 7.7134L5.17521 3.8999H4.00021V5.0749L7.82321 8.8979C7.96171 9.0364 8.03254 9.2079 8.03571 9.4124C8.03904 9.6169 7.96821 9.79674 7.82321 9.9519C7.66821 10.1069 7.49004 10.1844 7.28871 10.1844C7.08737 10.1844 6.90921 10.1069 6.75421 9.9519ZM9.25021 15.8249L20.0002 5.0749V3.8999H18.8252L8.07521 14.6499L9.25021 15.8249Z" fill="#1A1A1A"/>
</g>
</svg>
